<svg xmlns="http://www.w3.org/2000/svg" xmlns:xlink="http://www.w3.org/1999/xlink" width="100" height="100" viewBox="0, 0, 400,400"><g id="icon"><path d="M60.000 200.000 L 60.000 380.000 90.000 380.000 L 120.000 380.000 120.000 300.000 L 120.000 220.000 169.846 220.000 L 219.692 220.000 224.364 237.000 C 226.934 246.350,236.558 281.900,245.750 316.000 L 262.464 378.000 295.232 379.162 C 313.254 379.801,327.997 379.801,327.993 379.162 C 327.989 378.523,318.154 341.317,306.136 296.482 L 284.287 214.964 304.748 196.567 C 351.271 154.740,353.347 89.160,309.477 47.195 C 282.176 21.080,276.325 20.000,162.128 20.000 L 60.000 20.000 60.000 200.000 M258.722 82.362 C 276.928 95.862,283.094 118.984,273.647 138.334 C 261.174 163.887,248.091 167.987,179.000 167.994 L 120.000 168.000 120.000 119.725 L 120.000 71.450 183.722 72.725 C 240.946 73.870,248.594 74.853,258.722 82.362 "></path></g></svg>